<?xml version="1.0" encoding="UTF-8"?>
<!DOCTYPE svg PUBLIC "-//W3C//DTD SVG 1.1//EN" "http://www.w3.org/Graphics/SVG/1.1/DTD/svg11.dtd">
<!-- Creator: CorelDRAW 2017 -->
<svg xmlns="http://www.w3.org/2000/svg" xml:space="preserve" width="0.74576cm" height="1cm" version="1.1" style="shape-rendering:geometricPrecision; text-rendering:geometricPrecision; image-rendering:optimizeQuality; fill-rule:evenodd; clip-rule:evenodd"
viewBox="0 0 2671 3582"
 xmlns:xlink="http://www.w3.org/1999/xlink">
 <defs>
  <style type="text/css">
   <![CDATA[
    .fil6 {fill:black;fill-rule:nonzero}
    .fil1 {fill:black;fill-rule:nonzero}
    .fil0 {fill:#009933;fill-rule:nonzero}
    .fil4 {fill:#BFE809;fill-rule:nonzero}
    .fil2 {fill:#FF6600;fill-rule:nonzero}
    .fil5 {fill:darkorange;fill-rule:nonzero}
    .fil3 {fill:#FFCC00;fill-rule:nonzero}
   ]]>
  </style>
 </defs>
 <g id="Layer_x0020_1">
  <metadata id="CorelCorpID_0Corel-Layer"/>
  <g id="_1464176674944">
   <g>
    <path class="fil0" d="M358 2147l8 -69 55 0 10 69 70 0 -64 -352 -84 0 -65 352 70 0zm56 -131l-40 0 20 -158 1 0 19 158zm251 131l0 -70 -85 0 0 -282 -69 0 0 352 154 0zm183 0l-6 -276 1 0 48 276 52 0 49 -276 1 0 -7 276 66 0 0 -352 -97 0 -37 208 -1 0 -36 -208 -98 0 0 352 66 0zm288 0l8 -69 55 0 10 69 70 0 -64 -352 -84 0 -65 352 70 0zm56 -131l-40 0 20 -158 1 0 19 158zm89 13l0 38c0,46 27,89 90,89 58,0 89,-38 89,-105 0,-43 -9,-66 -26,-84 -16,-18 -39,-30 -65,-50 -14,-11 -23,-22 -21,-43 2,-16 10,-25 24,-23 23,2 22,30 23,51l64 0c3,-66 -28,-114 -88,-114 -54,0 -87,34 -87,100 0,31 7,53 20,70 13,18 31,31 53,46 18,13 39,24 39,54 0,18 -7,35 -23,35 -22,0 -28,-18 -28,-38l0 -25 -64 0zm269 118l0 -147 48 0 0 147 69 0 0 -352 -69 0 0 135 -48 0 0 -135 -69 0 0 352 69 0zm238 0c21,0 43,-2 62,-16 20,-15 29,-41 30,-76l0 -156c0,-34 -4,-68 -31,-87 -23,-16 -53,-16 -78,-16l-75 0 0 352 94 0zm-24 -289c34,1 45,3 46,45l0 115c1,47 1,70 -46,66l0 -226zm141 192c0,72 34,106 93,106 71,0 94,-46 94,-106l0 -255 -70 0 0 264c0,15 -6,34 -24,34 -20,0 -24,-15 -24,-31l0 -266 -69 0 0 255zm399 -158c0,-68 -33,-105 -94,-105 -61,0 -95,38 -95,105l0 143c0,79 24,121 95,121 5,0 10,0 14,-1 4,-1 9,-1 13,-2l39 52 41 -41 -32 -41c14,-21 19,-50 19,-87l0 -143zm-119 6c0,-22 3,-47 25,-47 23,0 25,26 25,47l0 145c0,20 -2,50 -24,50 -22,0 -25,-30 -25,-50l0 -145zm216 250l0 -352 -70 0 0 352 70 0z"/>
    <path class="fil1" d="M2198 3582c1,1 1,1 1,0l-1 0z"/>
    <g>
     <path class="fil2" d="M351 3058c-17,-1 -32,-4 -47,-10 -14,-6 -28,-15 -39,-27 -12,-13 -21,-26 -27,-42 -6,-15 -9,-32 -9,-49l0 -555c0,-18 3,-34 9,-50 6,-16 15,-29 27,-41 12,-13 25,-22 39,-28 14,-6 30,-9 48,-9l287 -1c7,1 14,2 20,3 7,2 13,4 20,7 6,3 13,6 19,11 6,4 12,9 17,15 5,5 9,11 13,17 4,6 7,12 9,19 3,7 5,14 6,21 1,7 2,14 2,22 0,7 -1,15 -2,22 -1,7 -4,14 -6,21 -3,7 -6,14 -10,20 -4,6 -9,12 -14,18 -5,5 -11,10 -17,13 -6,4 -13,7 -19,10 -6,3 -13,5 -19,7 -7,1 -13,2 -20,2l-165 -1 0 79 140 0c14,1 27,4 39,9 12,6 24,14 34,25 10,11 17,23 23,36 5,13 8,27 8,42 0,0 0,0 0,0 0,0 0,0 0,0 0,0 0,0 0,0 0,0 0,0 0,0 0,1 0,1 0,1 0,0 0,0 0,0 0,0 0,0 0,0 0,0 0,0 0,0 -1,16 -4,30 -9,43 -5,13 -13,25 -23,35 -10,10 -22,18 -34,23 -12,5 -25,8 -39,8l-139 -1 0 161c0,18 -3,35 -9,50 -6,15 -15,29 -27,42 -12,12 -25,21 -39,27 -14,6 -30,9 -47,9l0 1z"/>
     <path class="fil3" d="M768 2961c-1,-3 -3,-6 -4,-11 -1,-4 -2,-8 -4,-13 -1,-4 -1,-8 -2,-12 0,-4 -1,-8 -1,-13l0 -540c0,-18 3,-34 9,-50 6,-16 15,-29 26,-41 12,-13 25,-22 39,-28 14,-6 30,-9 48,-9l289 -1c14,1 27,4 38,9 12,6 23,14 33,24 10,11 17,23 23,36 5,13 8,27 8,43 0,16 -3,30 -8,43 -5,13 -13,26 -23,37 -11,11 -22,19 -34,24 -12,5 -25,8 -39,8l-166 -1 0 68 137 0c8,1 15,2 22,3 7,1 14,4 21,7 7,3 14,6 20,11 6,4 12,9 18,15 4,4 8,9 12,14 4,5 7,10 9,16 1,3 3,6 4,9 1,3 2,6 3,8 1,3 1,6 2,9 1,3 1,6 2,9 0,1 0,1 0,2 0,0 0,1 0,1 0,1 0,1 0,2 0,0 0,1 0,2 0,1 0,2 0,2 0,1 0,2 0,2 -1,7 -2,14 -3,21 -1,7 -4,13 -6,20 -3,7 -6,13 -9,19 -4,6 -8,11 -14,17 -6,5 -12,10 -18,13 -6,4 -13,7 -20,10 -7,3 -14,5 -20,7 -7,1 -13,2 -20,2l-138 -1 0 69 158 0c8,1 15,2 23,3 7,2 15,4 22,7 7,3 14,6 20,11 6,4 12,9 18,15 5,4 9,9 13,14 3,5 7,11 9,17 3,6 5,12 7,18 2,6 3,12 4,18 0,1 0,1 0,2 0,0 0,1 0,1 0,1 0,1 0,2 0,0 0,1 0,2 0,1 0,1 0,2 0,1 0,1 0,2 0,7 -1,14 -2,21 -1,7 -4,13 -6,20 -3,7 -6,13 -9,19 -4,6 -8,11 -14,17 -6,5 -12,10 -18,14 -6,4 -13,8 -20,11 -7,3 -14,5 -20,6 -7,1 -14,2 -22,2l-283 0c-11,0 -22,-2 -33,-5 -11,-3 -22,-9 -32,-16 -11,-7 -19,-16 -27,-26 -7,-10 -14,-21 -19,-34l0 -1z"/>
     <path class="fil4" d="M1369 3006c-2,-1 -4,-2 -6,-3 -2,-1 -4,-2 -5,-3 -2,-1 -4,-3 -6,-4 -2,-1 -3,-3 -5,-4 -9,-7 -17,-13 -23,-20 -6,-7 -11,-14 -14,-21 -4,-7 -6,-14 -8,-23 -2,-9 -3,-18 -3,-28 0,0 0,0 0,-1 0,0 0,-1 0,-2 0,0 0,0 0,-1 0,0 0,-1 0,-2 0,0 0,0 0,0 0,0 0,0 0,-1 0,0 0,0 0,-1 0,0 0,-1 0,-2 0,-6 1,-12 2,-17 1,-6 2,-11 4,-16 1,-5 3,-10 5,-14 2,-4 5,-9 7,-13 6,-8 11,-15 16,-22 5,-6 11,-11 17,-15 6,-4 12,-6 19,-8 7,-1 15,-2 23,-2 1,0 3,0 4,0 1,0 3,0 4,0 1,1 3,1 4,1 1,0 3,0 4,0 3,1 6,1 9,2 3,0 6,1 10,2l46 12 42 11 30 8 12 3c1,1 3,2 5,3 2,0 3,1 5,1 1,0 1,0 2,0 1,0 1,0 2,0 1,1 1,1 2,1 1,0 1,0 2,0 3,1 7,1 11,2 4,0 7,1 10,1 4,1 6,1 9,1 2,0 5,0 8,0 3,0 5,0 8,-1 2,0 5,-1 8,-2 2,0 4,0 6,-1 2,0 4,-1 6,-2 1,-1 3,-1 5,-2 2,0 3,-1 4,-2 1,0 1,0 2,0 1,0 1,0 2,-1 0,0 0,0 1,-1 1,0 1,-1 2,-2 1,0 1,0 2,0 0,0 1,0 2,-1 0,0 0,0 1,-1 0,0 1,-1 2,-1 1,-1 1,-1 2,-2 1,0 1,-1 2,-2 1,-1 3,-3 4,-4 1,-1 2,-3 3,-4 1,-1 1,-3 2,-5 0,-2 1,-4 1,-6 -1,-1 -1,-3 -2,-5 0,-2 -1,-4 -2,-5 -1,-1 -1,-1 -2,-2 0,-1 -1,-1 -2,-2 -1,0 -1,0 -2,-1 -1,-1 -1,-1 -2,-2 0,0 0,0 -1,0 0,0 -1,0 -2,-1 0,0 0,0 -1,0 0,0 -1,0 -2,0 -1,0 -1,0 -2,-1 -1,0 -1,-1 -2,-2l-20 -8 -14 -4 -56 -14 -10 -2 -69 -21c-11,-2 -21,-5 -30,-8 -9,-3 -18,-7 -25,-11 -8,-4 -15,-7 -22,-11 -7,-4 -13,-7 -19,-11 -15,-10 -27,-21 -38,-33 -11,-13 -20,-27 -28,-42 -8,-16 -13,-32 -17,-48 -4,-17 -6,-34 -6,-52 0,-4 0,-7 0,-11 0,-3 0,-6 1,-9 0,-4 0,-7 1,-11 1,-4 1,-7 2,-11 1,-10 4,-21 7,-31 4,-10 8,-21 13,-31 5,-10 11,-20 17,-30 6,-10 13,-19 21,-29 11,-13 24,-24 38,-35 14,-11 30,-21 48,-30 18,-9 37,-16 58,-23 20,-6 42,-11 65,-14 1,0 3,0 4,0 1,0 2,0 4,-1 1,0 2,0 3,0 1,0 2,0 3,0 1,0 3,0 4,0 1,0 2,0 4,-1 1,0 2,0 3,0 1,0 3,0 4,0 1,0 3,0 4,0 1,0 2,0 3,-1 1,0 3,0 4,0 1,0 2,0 3,0 2,0 4,0 7,0 2,0 5,0 8,0 10,0 19,0 29,1 9,1 19,2 28,3 10,1 19,2 28,4 9,2 18,5 27,8 20,7 38,13 53,21 15,7 27,15 36,23 10,7 18,16 24,26 6,10 11,20 14,31 1,3 2,6 3,9 0,3 1,7 2,11 0,1 0,3 0,5 0,2 0,4 1,5 0,2 0,3 0,4 0,1 0,3 0,4 0,5 0,11 -1,16 -1,6 -2,11 -3,16 -1,5 -3,10 -5,14 -2,4 -5,8 -7,12 -5,8 -10,15 -17,21 -6,6 -13,11 -19,14 -6,4 -13,6 -21,8 -8,2 -16,3 -25,3 -5,0 -10,0 -15,-1 -5,0 -10,-1 -16,-2 -5,-2 -10,-3 -16,-4 -6,-1 -12,-3 -18,-5l-8 -4 -30 -10 -13 -3 -29 -8 -15 -3 -11 -2c-1,1 -1,1 -2,1 0,0 -1,0 -2,0 -1,0 -1,0 -2,0 -1,0 -1,0 -1,-1 -1,0 -1,0 -2,0 -1,0 -1,0 -2,0 -1,0 -1,0 -2,0 0,0 -1,0 -2,0 -1,0 -1,0 -2,0 0,0 -1,0 -1,0 -1,0 -1,0 -2,0 0,0 -1,0 -1,0 -1,0 -1,0 -2,0 0,0 -1,0 -1,0 -1,0 -1,0 -2,0 0,0 -1,0 -1,0 -4,0 -8,0 -11,1 -3,0 -6,1 -8,2 -3,1 -5,2 -7,3 -2,1 -4,2 -5,4 -1,1 -3,3 -4,5 -1,2 -2,4 -4,5 -1,2 -1,3 -2,4 0,1 -1,3 -1,4 0,1 0,3 1,4 0,1 1,2 2,4 1,1 1,1 2,2 1,1 1,1 2,2 1,1 3,1 4,2 1,1 2,2 4,2 1,1 3,1 4,2 1,0 3,1 5,2l51 13 32 8 8 2 61 18c9,4 18,7 26,9 8,3 16,6 23,9 4,1 7,3 11,4 4,2 8,3 11,4 4,2 7,4 10,6 4,1 7,3 9,4 19,10 36,23 50,37 14,14 26,30 36,48 10,18 17,36 23,54 5,18 8,38 8,58 0,2 0,3 0,5 0,2 0,4 0,5 -1,2 -1,4 -1,6 0,2 0,4 0,5 -1,3 -1,6 -2,9 0,3 -1,7 -1,11 -2,10 -5,21 -8,31 -4,10 -7,21 -12,31 -5,10 -10,19 -16,29 -6,10 -12,19 -20,28 -15,18 -31,35 -49,48 -18,14 -39,26 -61,36 -22,10 -46,17 -71,21 -26,4 -54,7 -85,7 -2,0 -4,0 -6,0 -2,0 -3,0 -5,0 -2,-1 -4,-1 -6,-1 -2,0 -4,0 -6,0 -2,0 -4,0 -6,0 -2,0 -4,0 -5,0 -2,-1 -4,-1 -6,-1 -2,0 -4,0 -6,0 -23,-2 -44,-3 -63,-6 -19,-2 -36,-6 -51,-10 -15,-4 -29,-8 -40,-13 -12,-5 -22,-10 -30,-15l0 -1zm558 -652c1,-14 5,-28 9,-40 5,-13 12,-25 22,-35 10,-10 21,-18 33,-24 12,-6 25,-8 39,-8l411 -1c14,1 27,4 39,9 12,6 24,14 34,25 10,11 17,23 23,36 5,13 8,27 8,43 0,0 0,0 0,0 0,0 0,0 0,0 0,0 0,0 0,0 0,0 0,0 0,0 0,1 0,1 0,1 0,0 0,0 0,0 0,0 0,0 0,0 0,0 0,0 0,0 -1,16 -4,30 -9,43 -5,13 -13,25 -23,35 -10,10 -22,18 -34,23 -12,5 -25,8 -39,8l-88 -1 0 460c0,18 -3,34 -9,48 -6,14 -15,28 -27,40 -11,12 -24,21 -38,27 -14,6 -30,9 -46,9 -17,0 -32,-3 -47,-9 -14,-6 -27,-15 -39,-27 -11,-13 -20,-26 -26,-41 -6,-15 -9,-31 -9,-49l0 -461 -83 0c-15,1 -28,-1 -40,-7 -12,-5 -23,-13 -33,-24 -10,-10 -17,-22 -22,-35 -5,-13 -7,-27 -7,-43 0,0 0,0 0,0 0,0 0,0 0,0 0,0 0,0 0,0 0,0 0,0 0,-1 0,0 0,0 0,0 0,0 0,0 0,0 0,0 0,0 0,0 0,0 0,0 0,0l-2 -1z"/>
    </g>
    <path class="fil1" d="M495 3487l0 -50 -100 0c0,-23 17,-46 28,-60l42 -52c22,-27 34,-56 34,-94 0,-55 -32,-88 -77,-89 -83,-1 -82,76 -82,106l0 10 50 0c0,-16 -1,-33 4,-49 4,-13 14,-17 25,-17 15,0 26,10 26,41 0,33 -9,44 -27,66l-26 33c-33,42 -47,73 -51,97 -3,20 -4,44 -5,58l158 0zm523 -246c-2,-38 10,-48 23,-48 14,0 26,10 25,48l0 154c2,38 -10,49 -25,49 -14,0 -25,-10 -23,-49l0 -154zm-54 154c0,73 29,99 78,99 49,0 78,-26 78,-99l0 -154c0,-73 -29,-98 -78,-98 -49,0 -78,26 -78,98l0 154zm772 92l0 -50 -100 0c0,-23 17,-46 28,-60l42 -52c22,-27 34,-56 34,-94 0,-55 -32,-88 -77,-89 -83,-1 -82,76 -82,106l0 10 50 0c0,-16 -1,-33 4,-49 4,-13 14,-17 25,-17 15,0 26,10 26,41 0,33 -9,44 -27,66l-26 33c-33,42 -47,73 -51,97 -3,20 -4,44 -5,58l158 0zm516 -158c15,0 39,0 49,14 6,8 6,26 6,36 0,32 1,65 -29,65 -34,0 -29,-42 -30,-71l-50 0 0 20c-1,36 5,101 80,101 59,0 84,-41 84,-108 1,-53 -18,-80 -43,-83l0 -1c28,-5 38,-41 38,-71 0,-54 -24,-88 -79,-88 -55,0 -79,38 -76,102l50 0 0 -24c1,-22 15,-27 26,-27 18,0 26,12 26,38 0,17 -2,34 -17,42 -10,6 -23,4 -34,5l0 50z"/>
   </g>
   <g>
    <path class="fil4" d="M1123 1151c-47,2 -423,1 -471,-1 -167,-4 -340,-7 -473,98l0 0c-82,65 -127,155 -152,254 -25,100 -29,208 -26,308l0 0c0,25 0,50 0,181 86,-242 279,-327 507,-329l0 0 19 0c90,0 508,0 597,0l0 -512z"/>
    <path class="fil3" d="M1628 1151l0 0 1 -20c13,-228 129,-406 369,-440 66,-9 109,-9 174,-7 1,-3 1,-5 1,-8 32,-234 115,-377 223,-479 -89,29 -177,36 -247,40l0 0c-338,8 -764,216 -897,546 -44,111 -65,232 -68,351l-1 17 -2 0 0 513 6 0c159,-7 433,-65 441,-513z"/>
    <path class="fil5" d="M2476 185c-126,107 -228,271 -260,534 0,66 0,132 0,198l0 0c0,21 0,118 0,215l0 19 -19 0 -135 0c-135,0 -245,0 -379,0 -1,261 -104,444 -290,513 168,0 311,0 479,0 32,0 63,0 495,0l0 0c46,1 94,-7 137,-25 38,-16 71,-40 96,-74l0 -1c33,-41 51,-90 60,-141 10,-52 10,-108 10,-161l0 0 0 -97 0 -51c0,-244 -2,-856 -1,-1115 -73,136 -108,113 -193,185z"/>
    <path class="fil6" d="M2670 24c-1,2 -3,4 -4,5l4 -2 0 -3z"/>
   </g>
  </g>
 </g>
</svg>
